<?xml version="1.0" encoding="utf-8"?>
<!DOCTYPE svg PUBLIC "-//W3C//DTD SVG 1.0//EN" "http://www.w3.org/TR/2001/REC-SVG-20010904/DTD/svg10.dtd">
<svg version="1.0" xmlns="http://www.w3.org/2000/svg" width="1024px" height="1024px" viewBox="0 0 1024 1024" preserveAspectRatio="xMidYMid meet">
 <g fill="#000000">
  <path d="M441.9 776.9 c-2 -2 -2.2 -2 -8.8 -0.3 -4.6 1.1 -9.8 1.5 -15.6 1.3 -8.4 -0.4 -8.8 -0.5 -11.4 -3.7 -2.7 -3.2 -2.8 -3.2 -11.9 -3.2 -8.2 0 -9.4 -0.2 -11.9 -2.4 -2.5 -2.2 -2.8 -3.1 -3.1 -10.4 -0.4 -6.9 -0.1 -8.8 2 -13.4 4.7 -10.2 17.6 -21.5 30.6 -26.8 l4.7 -1.9 -9.8 0 c-10 -0.1 -24.3 -2.5 -35.5 -6 l-5.9 -1.8 1.3 4.5 c1.6 5.2 1.8 16.9 0.5 20.5 -2.3 5.9 -16.5 10.3 -44.3 13.7 -24.6 3 -40.9 5.6 -59.8 9.6 -18.5 4 -28.3 4.3 -31.8 1 -1.7 -1.5 -2.6 -1.6 -5.9 -0.7 -4.1 1.2 -19.1 1.5 -21.8 0.5 -0.8 -0.4 -2.2 -1.9 -3.1 -3.5 -1.4 -2.8 -1.7 -2.9 -8.5 -2.9 -6.5 0 -7.3 -0.2 -10.1 -3 -3 -3 -3 -3.2 -2.6 -11.4 0.5 -10.1 3 -14.9 11.5 -22.5 10.2 -9.1 31.3 -18.1 51.4 -22 l8.9 -1.7 -3.6 -4.9 c-4.2 -5.7 -10.9 -19.4 -11.9 -24.2 -1.1 -5.3 -2.5 -4.9 -2.5 0.6 l0 5.1 -3.6 0 c-3.3 0 -3.7 -0.3 -5.8 -5.2 -3.9 -8.7 -5.6 -18.6 -5.6 -31.6 0 -17.9 3.8 -34.5 11.8 -51.2 3.1 -6.4 3.1 -6.5 1 -6.8 -1.9 -0.4 -2 -0.8 -1.5 -6.5 0.6 -6.1 7.2 -33.2 10 -41.2 l1.5 -4.1 -4.9 1.6 c-3.9 1.2 -5.1 2.2 -6.5 5.2 -2.5 5.6 -7.5 9.9 -12.2 10.5 -3.5 0.5 -4.2 1 -5.8 4.5 -2.9 6.5 -6.5 8.8 -13.7 8.8 -3.5 -0.1 -7.3 -0.7 -8.7 -1.5 -3.3 -1.9 -3.8 -1.9 -4.5 0.6 -0.6 1.9 -1.3 2.1 -7 1.7 -16.9 -1.1 -25.9 -13.3 -26 -35.3 0 -8.5 0.4 -11.1 2.8 -17.5 3.6 -9.9 12.4 -21.5 26.9 -35.5 35 -33.8 32.9 -31.4 34.3 -39 0.6 -3.8 6.9 -17.4 10 -21.8 2 -2.9 1.9 -3.7 -0.5 -3.7 -1.6 0 -2 -0.7 -2 -3.5 0 -3.2 3.5 -9.9 12 -23.2 1.3 -2 1 -2.5 -2.6 -6.9 -3.5 -4.3 -3.9 -4.6 -4.2 -2.6 -0.3 1.8 -1 2.2 -3.7 2.2 -3.8 0 -7.1 -3.2 -11.1 -11.1 -2.2 -4.4 -2.8 -4.9 -5.8 -4.9 -4.4 0 -8.4 -4.5 -14.3 -15.9 l-4.2 -8.1 -6.8 5.8 c-3.7 3.3 -7.7 6.9 -8.7 8.1 -1.2 1.3 -3.1 2.1 -5.3 2.1 -3.2 0 -3.3 -0.1 -3.3 -3.9 0 -5.8 6 -16.9 13.1 -24.1 3.2 -3.3 5.9 -6.9 5.9 -8 0 -1.1 -0.3 -2 -0.6 -2 -2.1 0 -17.4 6.2 -25.3 10.2 -5.2 2.6 -10.7 4.8 -12.3 4.8 -2.6 0 -2.8 -0.3 -2.8 -3.6 0 -3.1 0.9 -4.5 6.4 -9.9 7.3 -7.2 17.1 -13.3 26.6 -16.6 3.6 -1.2 7.2 -2.8 8 -3.6 1.2 -1.1 0.9 -1.3 -2.3 -1.3 -4.6 0 -21.9 2.6 -26.7 4 -1.9 0.5 -5.2 1 -7.2 1 -3.6 0 -3.8 -0.1 -3.8 -3.3 0 -3 0.6 -3.7 6.2 -7 9.5 -5.7 20.4 -8.7 33.1 -9.4 l10.9 -0.6 2.9 -4.1 c1.7 -2.3 5.8 -8.2 9.2 -13.1 l6.3 -9.1 -3 -6.4 c-3 -6.2 -3.1 -7.1 -3.1 -19.5 0 -12.5 0.1 -13.2 3 -18.4 3.7 -6.8 10.2 -12.5 16.8 -14.8 6.9 -2.4 25.2 -2.4 31.5 0 4.2 1.6 4.5 1.6 10.5 -1 36.3 -15.3 77.9 -19.2 114.9 -10.6 l7.8 1.8 0 3.8 c0 2.9 0.4 3.7 1.8 3.7 3.1 0 15.4 3.6 22 6.4 6.1 2.6 6.4 2.6 12 1.1 9 -2.4 23.5 -3 31.8 -1.2 10.2 2.2 16.1 5.3 23 12.2 8.3 8.2 9.7 12.5 9.2 28.8 -0.3 11.2 -0.6 12.7 -3.4 18.7 -1.7 3.6 -5.3 9.2 -8.1 12.5 l-5 6.1 7.7 11.5 c9.8 14.9 16 26.8 16 30.9 l0 3.3 -4.9 -0.5 -4.8 -0.5 4.3 9.1 c5.4 11.5 10.4 26.3 10.4 31 0 3.5 -0.1 3.6 -3.6 3.6 -2 0 -4.9 -0.9 -6.5 -2.1 -1.6 -1.1 -2.9 -1.7 -2.9 -1.4 0 1.3 11.5 21.3 25.7 44.8 34.7 57.4 40.3 66.8 46 77.7 9 17.1 15.3 34.3 15.3 41.8 0 2.9 -0.3 3.2 -3.2 3.2 -1.7 0 -4 -0.7 -5 -1.7 -1 -0.9 2.1 6.2 7 15.8 13.1 25.9 20.2 49.3 20.2 66.5 l0 6.4 -3.3 0 c-2.6 0 -3.6 -0.6 -5.1 -3.1 -1 -1.7 -2 -2.9 -2.1 -2.7 -0.2 0.2 0.7 4.6 2 9.8 1.3 5.2 2.7 11.8 3.1 14.6 0.3 2.8 0.9 5.5 1.2 6.1 0.8 1.2 13.6 5.4 24.7 8.2 20.5 5.1 36.9 6.8 76.7 8.1 34.6 1.1 58.8 3 80.8 6.1 66.3 9.4 121.7 31.5 131.1 52.4 2.1 4.5 2.5 13.8 0.8 18.2 -5.1 13.6 -31.9 22.7 -85.4 29 -12.3 1.4 -23.3 1.8 -60.5 1.8 -47.8 0 -59.8 -0.7 -93.5 -5.6 -39.6 -5.8 -88.7 -18.3 -103.1 -26.3 -2.4 -1.3 -4.4 -2.2 -4.4 -1.9 0 0.3 1.1 3.7 2.5 7.5 2.7 7.4 3.5 20.1 1.5 23.9 -3.1 5.7 -34.1 14.6 -65.6 18.9 -7.9 1 -10.7 1.8 -29.3 7.4 -11 3.4 -23.1 3.6 -26.2 0.5z m-0.8 -33.2 c6.8 -8.6 6.9 -8.7 3.4 -7.3 -1.9 0.8 -5.1 2.7 -7.1 4.2 -5.4 4.2 -12.2 15.2 -10.8 17.6 0.9 1.3 6.1 -3.9 14.5 -14.5z m35.4 2.7 c3.3 -2.5 6.1 -4.9 6.3 -5.3 0.5 -1.4 -4.7 -3.4 -7.2 -2.7 -5.9 1.5 -13.6 11.2 -13.6 17.2 l0 2.7 4.3 -3.7 c2.3 -2 6.9 -5.7 10.2 -8.2z m-66 -2.9 c6.4 -7.3 6.5 -8.3 0.4 -2.8 -3.4 3.1 -7.8 9.3 -6.5 9.3 0.2 0 2.9 -2.9 6.1 -6.5z m-180.8 -15.8 c4.2 -5.1 5.7 -7.4 4.2 -6.6 -5.2 2.7 -9.2 6.5 -12 11.3 -5.5 9.7 -2.8 8.1 7.8 -4.7z m29.3 5.3 c4.1 -3.3 7.8 -6 8.2 -6 1.6 0 0.8 -2 -1.2 -3 -2.6 -1.4 -5.1 -0.6 -9 2.7 -4.2 3.5 -8.7 12.3 -6.2 12.3 0.4 0 4.1 -2.7 8.2 -6z m558 -8.9 c4 -0.7 0.7 -0.8 -12 -0.4 -19.4 0.6 -53.2 -0.9 -74 -3.2 -16.6 -1.9 -43.3 -6.6 -59.9 -10.5 -14.2 -3.5 -15.7 -3.6 -8.1 -0.9 24.3 8.7 60.6 15.3 93 16.7 17 0.8 52.3 -0.2 61 -1.7z m-400.3 -96.5 c3.4 -10.1 3.6 -11.3 1.8 -9.6 -1.3 1.2 -3.5 2 -5.5 2 l-3.3 0 0.6 -5.3 c1 -10 9 -25.2 19.3 -36.7 4.5 -5 4.6 -5.3 1.6 -3.4 -10.8 6.7 -24.1 21.8 -30.9 34.9 -3.9 7.6 -9.8 24.3 -8.9 25.2 0.2 0.2 1.4 -1 2.6 -2.6 1.7 -2.4 2.9 -3.1 5.6 -3.1 3.3 0 3.4 0.1 3.4 3.8 0 5.2 2.5 14.2 5.8 21 l2.7 5.7 0.7 -10.2 c0.5 -7.8 1.5 -12.7 4.5 -21.7z m-130.5 -5.3 c-3.2 -6.5 -7.9 -16.4 -10.3 -22 -2.4 -5.6 -4.5 -10 -4.7 -9.8 -0.7 0.7 3.8 14.4 7.3 22 3.2 7.2 11.9 21.5 13 21.5 0.3 0 -2.1 -5.3 -5.3 -11.7z m20.6 -79.4 c-0.7 -3 -1.3 -10.8 -1.3 -17.4 0 -11.5 0.1 -12.3 3.3 -19 1.8 -3.8 5.9 -11 9.1 -16 3.2 -4.9 7.1 -12 8.7 -15.7 2.7 -6.4 3 -6.8 6.1 -6.8 3.1 0 3.2 0.1 3.5 4.7 l0.3 4.7 5.3 -6.7 c6.1 -7.7 14.4 -23.2 16.3 -30.7 1.3 -5 1.4 -5.1 4.7 -4.8 3.1 0.3 3.7 0.8 5.2 4.7 l1.7 4.5 0.8 -5 c1.9 -12.9 9.8 -30.3 18.5 -40.9 3.7 -4.5 5.1 -5.4 7.8 -5.5 3.2 0 3.2 0.1 3.2 4.6 l0 4.6 4.3 -5.8 c2.4 -3.3 6.6 -8 9.4 -10.5 l5.1 -4.5 -6.6 0.9 c-13.5 1.8 -31.7 8.9 -48 18.8 -4.1 2.5 -7.6 3.9 -9.8 3.9 -3.1 0 -3.4 -0.2 -3.4 -3.1 0 -1.7 0.5 -3.9 1 -5 0.6 -1 0.7 -1.9 0.3 -1.9 -2.1 0.1 -23.2 12.1 -29.6 16.9 -12.6 9.4 -23.1 23.5 -25.8 34.3 -1 4.5 -1.3 4.8 -4.4 4.8 -2.3 0 -3.5 -0.5 -3.9 -1.7 -1.5 -5.1 -2.6 -14.6 -2.6 -22.2 -0.1 -7.9 -0.2 -8.4 -1.5 -6.1 -0.8 1.4 -2 4.9 -2.6 7.8 -1.2 5 -1.3 5.2 -4.6 5.2 -3.3 0 -3.6 -0.3 -6.9 -7.5 -1.9 -4.1 -4.5 -11.8 -5.8 -17.1 l-2.3 -9.7 -3.1 5.4 c-2.7 4.7 -8.2 19.2 -8.2 21.6 0 0.5 1.7 0.7 3.8 0.5 l3.8 -0.4 0 16.4 c0 13.9 0.4 18.2 2.7 28.7 1.5 6.9 3.1 12.9 3.5 13.3 0.5 0.5 1.9 -1.4 3.2 -4.2 2.3 -4.8 2.6 -5.1 5.8 -4.8 l3.5 0.3 2.2 10 c3 13.2 6.6 23.7 12.6 36.3 4.4 9.4 14.8 26.6 15.6 25.8 0.2 -0.1 -0.3 -2.7 -0.9 -5.7z m43.7 -7.4 c1.5 -1.9 3.3 -6 4.2 -9.2 0.8 -3.2 3 -8.9 4.9 -12.7 1.9 -3.9 3.4 -7.1 3.4 -7.3 0 -0.2 -1.7 0.5 -3.8 1.6 -6.8 3.5 -14 13 -15.6 20.7 -0.8 3.4 1.5 10.4 3.3 10.4 0.5 0 2.2 -1.6 3.6 -3.5z m40.9 -12.4 c3.2 -1.7 6.4 -3.1 7.2 -3.1 2.4 0 1.5 -4 -1.5 -7.1 -1.6 -1.6 -3.8 -2.9 -4.9 -2.9 -3.7 0 -11.1 6.1 -15.6 12.8 -4.2 6.3 -7 13.4 -5.9 14.6 0.3 0.3 3.8 -2.1 7.7 -5.4 3.9 -3.2 9.7 -7.2 13 -8.9z m-197.7 3.8 c0.8 -0.8 0.4 -3.1 -1.3 -8.2 -1.3 -4 -2.8 -11 -3.2 -15.7 l-0.8 -8.5 -2.7 5.5 c-3.1 6.3 -3.3 10 -1.2 16.1 1.7 4.8 6.1 11.9 7.3 11.9 0.4 0 1.3 -0.5 1.9 -1.1z m138.1 -12.9 c2.3 -5.3 2.3 -5.4 0.3 -3.6 -4.4 4 -9.1 14.3 -7.3 16.1 0.7 0.6 3 -3.7 7 -12.5z m-160.9 4.9 c-0.7 -3 -1.4 -4.8 -1.7 -4.1 -0.4 1.4 1.8 10.5 2.5 9.9 0.2 -0.2 -0.2 -2.8 -0.8 -5.8z m296.1 1.1 c2.6 -1.7 5.5 -3.9 6.5 -5 1.1 -1.2 3.1 -2 5.2 -2 3.2 0 3.3 0.1 3.3 4.2 l0 4.1 2.1 -1.9 c2.6 -2.3 7.9 -9.4 7.9 -10.6 0 -0.4 -1.3 -0.8 -3 -0.8 -2.5 0 -3 -0.4 -3.6 -3.6 l-0.6 -3.5 -1.6 2.3 c-3.1 4.7 -10.9 12.2 -16.6 15.9 -3.3 2.2 -5.5 3.9 -5.1 3.9 0.5 0 2.9 -1.4 5.5 -3z m-249 -14.2 c3.3 -8.8 3.7 -12 1.6 -13.7 -1.1 -0.9 -2.1 -0.6 -4.5 1.5 -6.9 5.8 -8.8 14.6 -4.6 21.1 1.7 2.5 1.8 2.5 3.1 0.8 0.7 -1 2.7 -5.4 4.4 -9.7z m285.7 -16.8 l0.2 -8.5 -2.4 8 c-3 9.9 -3 9.7 -0.2 9.3 2.1 -0.3 2.2 -0.8 2.4 -8.8z m-86.1 -33.6 c2.7 -0.9 5 -1.8 5.2 -1.9 0.2 -0.2 -1.5 -3.1 -3.7 -6.5 -2.3 -3.5 -4.1 -6.8 -4.2 -7.4 0 -0.6 -0.4 0 -1 1.2 -1 2.6 -2.5 16.2 -1.7 16.2 0.2 0 2.7 -0.7 5.4 -1.6z m-104 -88.8 c8.5 -2.9 14.4 -5.8 20.7 -10.2 2.9 -2.1 5.9 -3.4 7.8 -3.4 l3.2 0 -0.7 6.1 -0.6 6.1 2.8 -1.7 c6.8 -4.4 13.4 -10.1 16.9 -14.6 3.1 -4.1 4.2 -4.9 7 -4.9 3.3 0 3.3 0 3.3 5 0 4.9 0.1 5 2.3 3.9 1.2 -0.7 5.9 -4.9 10.4 -9.4 9.4 -9.4 14.1 -17.7 15 -27 l0.6 -5.6 3.5 0.3 c3.2 0.3 3.9 0.9 6.9 6.3 1.8 3.3 3.8 8.6 4.5 11.8 0.7 3.1 1.5 5.7 1.9 5.7 1.2 0 5 -11 5.6 -16.1 0.4 -3.3 -0.1 -6.9 -1.6 -11.7 -1.1 -3.9 -2.1 -8.4 -2.1 -10.1 0 -2.8 0.3 -3.1 3.3 -3.1 1.7 0 5.2 1.2 7.6 2.5 2.4 1.4 4.6 2.3 4.9 2.1 0.2 -0.3 -2.6 -3.6 -6.4 -7.4 -5.4 -5.4 -9.1 -8 -17.2 -12 -5.7 -2.9 -11 -5.2 -11.8 -5.2 -0.9 0 -1.4 -1.2 -1.4 -3.5 0 -3.1 0.3 -3.5 2.8 -3.6 1.5 0 3.6 -0.4 4.7 -0.8 3.9 -1.6 -9.3 -2.4 -19.6 -1.2 -11.5 1.3 -19.9 1.4 -19.9 0.4 0 -0.5 -4.2 -0.8 -9.3 -0.8 -8.7 0 -9.6 -0.2 -13 -2.8 -2.4 -1.8 -4.2 -4.4 -5.4 -7.7 -0.9 -2.7 -2.1 -4.6 -2.5 -4.4 -1.4 0.9 -0.9 3.4 1.7 7.4 1.5 2.4 2.5 5.4 2.5 7.6 l0 3.7 -5.2 -0.6 c-6.3 -0.8 -13.8 -4.3 -21.7 -10.3 -4.7 -3.5 -8.1 -5 -17.7 -7.7 -20.2 -5.8 -22.7 -5.6 -39.1 2 l-5.8 2.7 10.1 0.7 c19.8 1.3 35.8 8.7 40 18.6 1.8 4.1 1.8 13.4 0 17.7 -2.8 6.6 -13.9 16.6 -18.6 16.6 -2.4 0 -15.9 6.1 -16 7.2 0 1.6 8 6 15 8.2 11.4 3.6 25.3 5.1 34.7 3.7 4.3 -0.6 8.2 -1.6 8.7 -2.1 1.1 -1.1 -4.2 -7.2 -8.6 -9.8 -2.2 -1.2 -2.8 -2.4 -2.8 -4.9 0 -3.3 0 -3.3 4.9 -3.3 6 0 11.7 2 17.7 6.1 4.6 3.1 6.1 3.3 5.1 0.5 -0.6 -1.5 -15.2 -8.9 -20 -10.1 -2.3 -0.6 -2.7 -1.3 -2.7 -4.1 l0 -3.4 8.3 0 c4.5 0 10.6 0.7 13.5 1.4 3.9 1.1 5.2 1.1 4.9 0.3 -0.5 -1.5 -11.3 -3.6 -18.4 -3.7 l-5.3 0 0 -3.4 c0 -2.9 0.5 -3.6 3.3 -4.6 4.7 -1.8 27.8 -2.5 34.6 -1 8.2 1.7 21.5 8.6 27.7 14.2 4.8 4.4 5.4 5.5 5.4 8.9 0 3.6 -0.2 3.9 -2.9 3.9 -1.7 0 -4.5 -0.9 -6.3 -1.9 -1.8 -1.1 -6.8 -3.3 -11.1 -5 l-7.9 -3 0.8 4.2 c0.5 3 2 5.6 5.3 9.3 6.6 7.2 11.1 16 11.1 21.8 0 4.4 -0.1 4.6 -2.8 4.6 -2.2 0 -4.7 -1.8 -10.8 -7.5 l-7.8 -7.5 -3.5 3.4 c-3.3 3.4 -3.4 3.5 -2.2 8 0.6 2.4 1.1 6.3 1.1 8.5 0 4 -0.1 4.1 -3.2 4.1 -2.8 0 -3.8 -0.8 -6.3 -4.5 -1.6 -2.5 -3.2 -4.5 -3.5 -4.5 -0.3 0 -4.3 2.5 -9 5.6 -4.7 3 -13.3 8.3 -19.2 11.6 -7.9 4.3 -10.8 6.5 -10.8 7.9 0 2.4 0.2 2.4 8.6 -0.5z m-49.1 0.2 c-0.2 -0.7 -1.5 -4.9 -2.9 -9.3 -1.4 -4.4 -3.2 -11.2 -4.1 -15.2 l-1.6 -7.1 -5 2 c-2.7 1.1 -4.9 2.4 -4.9 2.9 0 0.4 1.4 4.7 3.1 9.6 4.6 13.3 8.3 18 14.1 18.2 1 0.1 1.6 -0.5 1.3 -1.1z m19.8 0.1 l3.8 -1 -0.3 -11.6 -0.3 -11.7 -7.5 -1.6 c-4.1 -0.9 -8.6 -2 -9.9 -2.4 -2.3 -0.8 -2.3 -0.7 -1.6 4.5 0.7 6 4.3 20.4 5.7 23.2 1 2 4.5 2.2 10.1 0.6z m-46.2 -44.4 c4.4 -1.5 9.9 -5.7 9.9 -7.5 0 -0.5 -3.1 -2.5 -7 -4.6 -3.8 -2 -9 -5.4 -11.4 -7.6 -4.4 -3.8 -10.6 -14.3 -10.6 -18 0 -1.4 -0.8 -1.8 -4 -1.8 -2.2 0 -4 0.2 -4 0.4 0 0.2 1.6 1.1 3.5 2 3 1.5 3.5 2.2 3.5 5.1 0 3.3 -0.2 3.5 -3.5 3.5 -2.4 0 -3.7 0.6 -4.5 1.9 -1.7 3.3 -1.1 4.1 3 4.1 3.8 0 4 0.1 4 3.3 0 2.2 -0.7 3.6 -2 4.5 l-2.1 1.3 2.2 3.9 c5.5 9.8 13 12.9 23 9.5z m-17.6 -51.2 c0.3 -1.6 1.4 -3.7 2.3 -4.8 0.9 -1.1 -0.2 -0.2 -2.5 1.9 -3.3 3 -4 4.3 -3.2 5.3 1.5 1.7 2.5 0.9 3.4 -2.4z m49.9 2.8 c0.9 -1.4 -12.3 -3.3 -17.7 -2.6 -6 0.9 -5.5 1.5 2 2.5 8.5 1.1 15.1 1.1 15.7 0.1z m-36.7 -14.8 c2.1 -1 3.9 -1.8 4.1 -1.9 0.6 -0.4 -3 -5.4 -3.9 -5.4 -1.6 0 -4.9 4.4 -4.9 6.7 0 2.8 -0.1 2.7 4.7 0.6z m235.3 -34.3 c0 -3.1 -0.8 -5.7 -2.6 -8.5 -2.5 -3.9 -2.5 -3.9 -2 -1 0.2 1.7 1 5 1.6 7.5 0.6 2.5 0.9 6.1 0.6 8 -0.5 3.5 -0.5 3.5 0.9 1 0.8 -1.4 1.4 -4.5 1.5 -7z m-122.2 -2 c6.4 -2.5 19.6 -3.5 28.2 -2.2 3.6 0.5 6.6 0.9 6.8 0.7 0.2 -0.1 -2.1 -1.8 -5 -3.8 -6.6 -4.3 -15.6 -7.1 -20.1 -6.2 -8.5 1.9 -17 8.3 -20.8 15.7 l-2.1 4 4 -3.1 c2.1 -1.8 6.2 -4 9 -5.1z m-90.1 -3.3 c-1.5 -3.5 -4.2 -5.7 -6.9 -5.7 -0.8 0 -3.6 1.5 -6.4 3.2 l-4.9 3.3 7.3 0.5 c4.8 0.4 7.8 1.2 8.9 2.3 2.6 2.5 3.6 0.5 2 -3.6z m193.1 -11.8 c5.3 -0.1 5.5 -0.2 2.2 -1 -3.3 -0.7 -11 0.4 -11 1.7 0 0.4 0.7 0.3 1.6 0 0.9 -0.3 4.1 -0.6 7.2 -0.7z"/>
 </g>
 <g fill="#ffffff">
  <path d="M0 512 l0 -512 512 0 512 0 0 512 0 512 -512 0 -512 0 0 -512z m465.1 261.4 c18.6 -5.6 21.4 -6.4 29.3 -7.4 31.5 -4.3 62.5 -13.2 65.6 -18.9 2 -3.8 1.1 -11 -2.6 -20.7 -3.3 -8.9 -3.4 -9.7 -2 -11.9 l1.6 -2.4 6.7 3.9 c9 5.3 19.9 9.1 42.7 15 31.8 8.2 58.5 12.9 94.1 16.7 24.4 2.5 95.3 2.5 117 0 53.5 -6.3 80.3 -15.4 85.4 -29 8 -21.1 -34.5 -45.3 -105.4 -60.1 -28.7 -5.9 -60.3 -9.1 -107.3 -10.6 -39.8 -1.3 -56.2 -3 -76.7 -8.1 -11 -2.7 -23.9 -7 -24.6 -8.2 -0.4 -0.5 -1 -3.3 -1.3 -6.1 -1.1 -8.3 -5.4 -23.9 -10.1 -36.9 -2.4 -6.7 -4.3 -12.3 -4.1 -12.4 0.4 -0.4 10.1 11.6 15.5 19.1 l4.3 6.1 -0.6 -7.5 c-2 -23.1 -14.5 -54 -36.5 -89.9 -4.4 -7.2 -7.8 -13.1 -7.6 -13.1 0.3 0 6 5.1 12.7 11.4 6.8 6.3 12.4 11.4 12.5 11.2 0.5 -0.5 -2.6 -10.5 -5.7 -18.6 -4.6 -11.8 -13.1 -27.9 -28.3 -53 -7.1 -11.8 -20.1 -33.3 -28.8 -47.6 -16.1 -26.7 -29.3 -50.8 -30.9 -56.4 l-0.9 -3.1 3.7 3.1 c6.7 5.6 16.3 12.2 16.8 11.7 1.7 -1.6 -13 -36.9 -18.7 -44.8 -1.2 -1.7 -1.9 -3.2 -1.7 -3.5 0.3 -0.2 2.9 0.6 5.9 2 10.9 4.7 10.7 4.9 5.8 -4.6 -2.4 -4.5 -8.1 -13.9 -12.7 -20.8 -4.6 -6.9 -8.6 -12.8 -8.8 -13.1 -0.2 -0.4 2.4 -4 5.8 -8 9.1 -10.9 12.2 -18.2 12.6 -29.6 0.5 -12.9 -1.3 -18 -9.2 -25.8 -7 -7 -13 -10.1 -23.6 -12.3 -11 -2.2 -21.5 -0.6 -39.5 6.2 -1.6 0.6 -1.6 0.4 0.4 -1.2 l2.4 -2 -4.9 -2.1 c-8.1 -3.6 -15.7 -5.8 -26 -7.6 -5.5 -0.9 -10 -1.8 -10.2 -2 -0.2 -0.2 0.7 -0.6 1.9 -1 1.2 -0.4 3.8 -1.4 5.8 -2.2 l3.6 -1.5 -7 -1.8 c-16.4 -4.2 -33.1 -5.5 -51 -4.1 -21.1 1.7 -40.4 6.5 -60.7 15.1 l-7.6 3.2 -5.9 -2.2 c-7.6 -3 -19.6 -3.2 -27 -0.7 -6.6 2.3 -13 8 -16.8 14.8 -2.8 5 -3 6.2 -3 15.5 0 9.7 0.1 10.3 4 18.1 l4 8.1 -7.2 10.3 c-4 5.7 -8.6 12.2 -10.2 14.5 l-2.9 4.1 -10.9 0.6 c-12.7 0.7 -23.6 3.7 -33 9.4 -3.5 2 -6.1 3.8 -5.9 4 0.2 0.3 2.4 -0.1 4.7 -0.7 10.8 -2.9 38.9 -5.4 38.9 -3.5 0 0.3 -1.1 2.2 -2.4 4.3 -1.9 3 -3.5 4.1 -9.2 6 -11.8 4.1 -26 13.6 -31.3 21.1 -2.1 2.9 -2 2.9 7.6 -2 7.5 -3.7 28.5 -11.9 30.8 -11.9 0.1 0 0.6 2.5 1 5.5 l0.6 5.5 -6.3 6.3 c-5.9 5.9 -11.6 14.8 -13.3 20.7 -0.6 2.1 0.2 1.7 4.6 -2.6 6.5 -6.2 16.7 -14.4 17.8 -14.4 0.5 0 1.2 1.2 1.6 2.8 1 4.1 9.5 18.8 12.6 21.8 l2.7 2.6 0.7 -5.2 0.7 -5.2 4.7 9.9 c2.6 5.4 6.1 11.3 7.7 13.2 l2.9 3.5 0.5 -2.9 c0.9 -5 3.6 -4.4 9.6 2.1 3 3.1 5.6 6.5 5.9 7.5 0.4 1.2 -0.8 4 -3.3 7.6 -5.5 8.2 -11.4 18.5 -10.8 19 0.2 0.2 2.3 -0.5 4.6 -1.7 2.3 -1.2 4.4 -1.9 4.6 -1.7 0.3 0.2 -1.6 4 -4.2 8.3 -7 11.9 -12.1 22.5 -12.9 26.9 -1.2 6.3 -2.7 8.4 -13.2 18.5 -5.4 5.3 -14.9 14.5 -21.1 20.5 -21.2 20.5 -29.8 35 -29.6 50 0.1 17.3 9 29.9 22.6 32.1 3.4 0.6 3.6 0.5 4.8 -3 0.6 -2 1.3 -3.6 1.4 -3.6 0.2 0 2.7 1.3 5.7 3 3 1.6 6.8 3 8.6 3 4.1 0 8.6 -3.8 10.9 -9.4 1.7 -4.1 2 -4.3 5.6 -4.2 2.9 0 4.4 -0.6 7.2 -3.3 1.8 -1.8 4.2 -5 5.1 -7.2 1 -2.2 2.5 -3.9 3.4 -3.9 1.3 0 10.2 -4 17.2 -7.7 0.3 -0.2 -0.9 4 -2.8 9.4 -3.3 9.4 -10.3 35.6 -11.7 43.6 l-0.7 3.8 5.2 -3.5 c2.9 -2 5.4 -3.4 5.6 -3.2 0.2 0.2 -1 2.7 -2.6 5.5 -19.2 32.5 -24.3 67.4 -13.3 91.1 l2.5 5.5 0.7 -6 c0.8 -6.5 2.4 -13.1 3.9 -15.4 0.7 -1.1 1.1 -0.4 1.6 2.5 2.8 16.6 10.1 32.3 20.2 43.4 l3.2 3.7 -10.2 1.7 c-21.7 3.8 -44.3 13.1 -55 22.7 -7.3 6.4 -10.7 12.2 -11.4 19.3 -0.5 5.2 -0.4 5.7 2.6 8.7 3.1 3.1 3.4 3.2 10 2.6 l6.8 -0.6 1.6 3.4 c1 2.2 2.6 3.7 4.3 4.1 3.7 0.9 14.1 -0.1 19.4 -2 4.4 -1.5 4.5 -1.5 6.5 1 3.2 4 7.9 4 26.5 0 18.9 -4 35.2 -6.6 59.8 -9.6 27.8 -3.4 42 -7.8 44.3 -13.7 1.6 -4.3 0.9 -10.6 -2.1 -19.3 -1.6 -4.6 -2.8 -8.5 -2.6 -8.7 0.1 -0.1 4.7 1.3 10.2 3.2 20.5 7.1 38.9 9.1 52.4 5.9 l6.7 -1.7 4.3 2.6 4.2 2.5 -5.8 1.2 c-21.6 4.5 -40.5 17.2 -47.2 31.8 -3.3 7.3 -2.8 14.5 1.4 18 2.6 2.3 3.4 2.4 11.9 2 l9.1 -0.5 1.7 2.9 c0.9 1.5 2.9 3.3 4.4 3.9 4.3 1.7 16.2 0.4 23.2 -2.4 l6.2 -2.5 1.4 2.8 c0.8 1.6 2 3 2.7 3.3 3.2 1.3 11.3 0.5 18.9 -1.9z"/>
  <path d="M424.2 761.8 c-3.4 -3.4 0.5 -14.5 7.6 -21.6 5.4 -5.5 11.3 -8.1 17.9 -8.2 6.4 0 7.5 1.5 3.4 4.7 -1.7 1.3 -6 6.2 -9.6 10.7 -10.5 13.6 -16 17.7 -19.3 14.4z"/>
  <path d="M458.9 760.3 c-2.1 -5.5 1.1 -15.1 6.8 -20.5 4 -3.8 9.9 -6.1 13.9 -5.3 3.1 0.5 9.4 5.4 9.4 7.2 0 0.5 -3.3 3.2 -7.2 6.1 -4 2.9 -10 7.5 -13.3 10.2 -3.2 2.8 -6.5 5 -7.2 5 -0.8 0 -1.8 -1.2 -2.4 -2.7z"/>
  <path d="M400 756.5 c-0.9 -1.1 -0.8 -2.7 0.5 -7 2.9 -10 11.9 -17.5 21 -17.5 2.5 0 4.5 0.3 4.5 0.6 0 1 -22.1 24.2 -23.5 24.8 -0.8 0.3 -1.9 -0.1 -2.5 -0.9z"/>
  <path d="M247.9 742.4 c-1.8 -2.2 -1.5 -7.4 0.9 -12 5.3 -10.4 15.9 -13.8 22.9 -7.2 3 2.8 2.9 4 -0.6 6.1 -1.6 0.9 -6.6 4.6 -11.1 8.2 -4.5 3.6 -8.8 6.5 -9.5 6.5 -0.7 0 -1.8 -0.7 -2.6 -1.6z"/>
  <path d="M217.3 742.3 c-2.3 -0.9 -1.4 -7.6 1.6 -12.9 5.1 -8.8 15.8 -15.1 23.8 -13.9 l4.4 0.6 -6.8 6.8 c-3.7 3.7 -9.5 9.7 -12.8 13.4 -5.7 6.3 -7.2 7.3 -10.2 6z"/>
  <path d="M197 736.2 c0 -0.5 0.7 -3.1 1.5 -5.8 2.9 -9.7 11.6 -16.8 19.9 -16.2 l4.3 0.3 -11.8 11.3 c-10.9 10.3 -13.9 12.6 -13.9 10.4z"/>
  <path d="M753 728.9 c-34.6 -1.8 -67.1 -7.7 -95.5 -17.6 -12.3 -4.3 -31.6 -14 -39.4 -19.9 -7.8 -5.9 -9.9 -8.5 -4.1 -5.2 16.4 9.5 51.7 20 89.5 26.7 60.3 10.7 127.1 10.1 177.5 -1.5 4.4 -1 0 1.3 -8.7 4.5 -16.5 6.1 -48.2 11.7 -70.8 12.6 -27.5 1.1 -33.5 1.2 -48.5 0.4z"/>
  <path d="M570 696.1 c0 -0.4 1.1 -3.3 2.4 -6.3 2.6 -5.8 7.8 -23.7 9.6 -33 1.9 -9.8 4 -7.1 4 5 0 11.2 -3.2 21.1 -9.3 29.4 -2.3 3.1 -6.7 6.4 -6.7 4.9z"/>
  <path d="M412 668 c-7.6 -11.8 -12 -23.6 -12 -32.5 l-0.1 -4 -2.5 3 c-2.8 3.2 -8.4 14.2 -8.4 16.3 0 0.7 -0.5 1 -1.1 0.6 -0.8 -0.5 -1 -3.6 -0.6 -10.3 1.6 -26.5 18.6 -55.1 41.5 -69.8 6.1 -3.9 17 -8.7 22.2 -9.8 l3.5 -0.7 -4 3.3 c-8.4 6.8 -22.4 21.7 -26.7 28.4 -4.6 7 -8.9 16.4 -10.2 22 l-0.7 3 4.3 -4.1 c4 -3.9 12.8 -10 12.8 -9 0 0.3 -1.7 4.5 -3.9 9.3 -9.4 21.5 -12.6 37.8 -10.3 52.8 0.6 3.8 0.9 7.1 0.7 7.3 -0.2 0.2 -2.2 -2.4 -4.5 -5.8z"/>
  <path d="M303.2 652.8 c-22.3 -19 -36.4 -48.5 -37.9 -79.3 -0.3 -6.6 -0.3 -11.8 0 -11.5 0.2 0.3 1.8 4.6 3.5 9.5 6.3 18.8 21.4 51.7 33.5 72.6 6.5 11.2 7.9 13.9 7.4 13.9 -0.1 0 -3.1 -2.4 -6.5 -5.2z"/>
  <path d="M309.1 557 c-12.8 -13.2 -25.9 -39.7 -31.7 -64.2 -1.4 -6.2 -2.8 -12 -3.1 -12.8 -0.6 -1.8 -5.4 7.4 -7.3 13.7 -0.7 2.3 -1.7 4 -2.1 3.7 -1.2 -0.7 -4.4 -12 -7 -24.4 -1.7 -8.2 -2.2 -14.1 -2.3 -26.8 -0.1 -18.6 0 -18.5 -7.2 -3.7 l-4.4 9 0.6 -7 c1.7 -20.6 9.7 -43.6 17.1 -49.5 3.1 -2.4 4.3 -1.8 4.3 2.1 0 5.1 4 19 7.7 26.9 l3.5 7.5 1.7 -6 c2.2 -7.6 4.1 -11.3 8 -15 l3.1 -2.9 -0.6 11.4 c-0.4 7.5 -0.2 14.1 0.6 19 1.7 10.3 2.5 11.3 3.9 5.3 3.9 -16 20.4 -33.3 43 -45.2 8.7 -4.5 25.1 -11.4 25.1 -10.6 0 0.2 -1.8 3.4 -3.9 7.1 -2.2 3.8 -3.9 7 -3.7 7.1 0.2 0.2 3.2 -1.4 6.7 -3.6 22 -13.3 46.5 -21 63.3 -19.9 l4.8 0.3 -7.8 6.5 c-9.8 8.2 -16.4 16.3 -21.5 26.5 l-4 8 0.3 -11.6 0.4 -11.6 -4.8 5.6 c-10 11.5 -18.8 34 -18.8 47.9 0 5.9 -0.1 6.3 -1.7 5.1 -1.4 -1.2 -5.6 -9.5 -7.7 -15.4 -0.5 -1.4 -1.4 0.1 -3.5 6.2 -4.6 13.3 -13.8 28 -22.9 36.7 l-3 2.8 -0.7 -5.8 c-0.3 -3.3 -0.7 -6.5 -0.8 -7.2 -0.1 -0.8 -1.5 1.7 -3.1 5.5 -1.6 3.7 -5.5 10.9 -8.7 15.8 -11.7 18.3 -14.8 29.2 -12 41.8 0.6 2.9 2 9.4 3.2 14.5 1.1 5 1.9 9.7 1.7 10.4 -0.3 0.7 -2.3 -0.7 -4.7 -3.2z"/>
  <path d="M343.1 541.4 c-7.8 -10 0.1 -30.4 14.4 -37 4.7 -2.2 12.5 -3.3 12.5 -1.7 0 0.4 -1.7 3.6 -3.8 7.2 -4.2 7.1 -7.5 15.1 -9.2 21.8 -1.2 4.6 -7.6 12.3 -10.3 12.3 -0.8 0 -2.5 -1.2 -3.6 -2.6z"/>
  <path d="M367.8 540.4 c-3.1 -6.6 5.5 -24.1 14.8 -30.3 5.9 -3.9 9.3 -4.6 13.7 -2.7 4.3 1.7 6.7 5.2 7.4 10.5 0.5 3.4 0.2 4.2 -1.3 4.7 -6 1.9 -14.9 7.3 -22.2 13.4 -4.6 3.9 -9 7 -9.8 7 -0.8 0 -2 -1.2 -2.6 -2.6z"/>
  <path d="M170.7 530.8 c-3.1 -4.2 -4.7 -9 -4.7 -14.3 0 -5 2.5 -12.7 4.8 -14.8 1.6 -1.4 1.7 -1.1 1.9 4.1 0.1 3.2 0.9 9 1.8 13 2.9 14.2 1.4 19 -3.8 12z"/>
  <path d="M322.4 530.8 c-4.5 -8.7 3.8 -24.6 15.2 -29.4 6.2 -2.6 6.7 -1.9 3.4 3.9 -1.7 2.8 -5.5 10.2 -8.5 16.3 -2.9 6.1 -6.1 11.4 -6.9 11.7 -1.1 0.4 -2.1 -0.4 -3.2 -2.5z"/>
  <path d="M190.3 532 c-2.7 -1.1 -6.7 -7 -8.8 -12.9 -3.6 -10.3 -0.3 -25.1 6.4 -28.5 5 -2.6 6.1 -2.2 4.9 2.1 -1.3 4.9 -0.2 14.8 2.8 23.6 3 8.8 3 11.8 0.1 14.5 -2.6 2.5 -2.4 2.4 -5.4 1.2z"/>
  <path d="M434.5 529.6 c24.3 -7.9 40.8 -19.5 48 -33.6 2.7 -5.3 2.8 -5.4 3.7 -3 0.5 1.4 1.4 4.6 1.9 7.3 0.6 2.6 1.5 4.5 2 4.1 3.8 -2.3 10.6 -23.7 11.8 -36.9 l0.7 -9 1.8 5.5 c1.4 4 2 9.5 2.3 20 0.4 12.4 0.2 15.4 -1.5 20.5 l-1.9 6 -1.3 -4.8 -1.3 -4.8 -3.5 7.3 c-2.5 5.1 -5.7 9.4 -10.4 14.1 -3.7 3.7 -7.1 6.7 -7.5 6.7 -0.5 0 -0.6 -3 -0.5 -6.7 l0.4 -6.6 -4.3 3.7 c-8.8 7.5 -25 12.6 -39.4 12.5 l-8 -0.1 7 -2.2z"/>
  <path d="M208.7 519 c-6.5 -7.7 -4.9 -21.4 3.3 -28.4 6.2 -5.2 11.3 -4 12.6 2.9 0.6 3.5 -2.9 15.2 -7.2 23.8 -2.9 5.6 -5.1 6 -8.7 1.7z"/>
  <path d="M386 467.2 c11.8 -6.6 21.8 -12.6 22.2 -13.4 0.3 -0.7 1.1 -5.4 1.8 -10.4 0.6 -5 1.7 -11.3 2.4 -14 l1.3 -4.9 2.2 6.6 c2.5 7.6 6.8 14.8 11.9 20.1 2.5 2.7 3.1 3.9 2.1 4.2 -0.8 0.2 -4.5 1.4 -8.4 2.7 -3.8 1.2 -12.6 5 -19.5 8.4 -13.6 6.8 -25 11 -32.6 12 -4.5 0.6 -3 -0.4 16.6 -11.3z"/>
  <path d="M273.3 371 c-1.2 -0.5 -2.4 -1.7 -2.7 -2.7 -3.3 -10.9 -4.8 -18.3 -5.3 -26.2 -0.6 -9 -0.5 -9.4 1.3 -8.6 1 0.4 6.4 1.9 11.9 3.3 5.5 1.3 10.6 2.6 11.3 2.8 0.9 0.2 1.2 4.1 1.2 14.8 l0 14.5 -3.7 1 c-6.3 1.7 -11.7 2.1 -14 1.1z"/>
  <path d="M302 367.1 l0 -4.9 11.8 -6.7 c6.4 -3.6 15.8 -9.3 20.7 -12.5 5 -3.2 9.5 -5.9 10.2 -5.9 0.7 -0.1 3 2.4 5.2 5.6 4.6 6.3 5 5.5 2.1 -3.9 l-2 -6.4 5.5 -5.6 5.4 -5.6 5.8 4.9 c3.2 2.8 7.5 6.8 9.6 9.1 2.6 2.9 3.7 3.6 3.7 2.3 0 -3 -6.2 -13.6 -11.1 -18.9 -3.5 -3.8 -4.8 -6.2 -5.4 -9.6 -0.4 -2.5 -1.6 -6.2 -2.7 -8.4 l-2 -3.9 3.7 0.7 c4.6 0.9 21 7.1 25.3 9.6 4.8 2.9 3.9 0.8 -2.2 -4.8 -6.3 -5.7 -19.5 -12.5 -27.8 -14.3 -7.2 -1.5 -24.1 -0.7 -28.8 1.4 l-3.5 1.5 4.8 0.1 c9.5 0.2 18.6 2.2 20.1 4.6 1.5 2.3 3.8 9.6 3.2 10.3 -0.2 0.2 -2.2 -0.6 -4.3 -1.7 -5.6 -2.8 -15.2 -5.1 -21.4 -5.1 l-5.4 0 8.4 3.5 c9.5 3.9 15.9 7.8 16.8 10.2 0.7 1.7 -1.7 6.3 -4.1 7.7 -1.1 0.7 -3 -0.1 -7.5 -3.2 -6.1 -4.3 -12.7 -7.2 -16.4 -7.2 -1.6 0 -1.1 0.6 2 2.9 5.2 3.8 11.7 11.7 11 13.5 -1.6 4 -29.9 5.5 -44.2 2.4 -15.5 -3.5 -23 -7.8 -24 -13.8 -0.6 -3.5 -0.6 -3.5 4.7 -5.4 3.6 -1.2 6.8 -3.4 10.2 -6.9 l4.9 -5 -0.6 3.6 -0.6 3.7 4.4 -3 c13.5 -9.3 17 -21.1 8.9 -30 -9.2 -10.2 -28.6 -15.6 -46.6 -13.1 -17.6 2.6 -27.8 10.7 -27.8 22.1 0 4.4 5.7 14.6 10.6 18.9 2.5 2.2 7.9 5.7 12 7.8 5.8 3 7.4 4.3 7.4 6 0 6 -4.9 10.3 -14.9 12.8 -11 2.9 -19.3 -0.7 -25.1 -10.8 -3.7 -6.4 -3.7 -8 -0.4 -10.6 l2.7 -2.1 -4.2 0 -4.1 0 0 -4.3 c0 -5.4 1.6 -7.5 6 -7.9 l3.5 -0.3 -3.4 -1.7 c-1.9 -1 -4.7 -1.8 -6.3 -1.8 -3.4 0 -3.5 -0.9 -0.3 -4.4 1.9 -2.1 3.3 -2.6 7 -2.6 2.5 0 4.5 -0.3 4.5 -0.7 0 -0.5 -1.6 -1.8 -3.6 -3.1 l-3.6 -2.3 3.5 -4.2 c1.8 -2.3 5.5 -5.8 8 -7.7 3.5 -2.6 4.7 -4.2 4.7 -6.1 0 -3 3.3 -6.9 5.9 -6.9 1.7 0 1.9 -0.8 1.7 -7.1 -0.1 -5 0.3 -7.3 1.2 -7.6 0.8 -0.3 1.2 1 1.2 4.9 0 3.6 0.7 6.8 2.3 9.8 3.2 6.4 4.4 6.8 10.2 3.2 2.8 -1.7 8.6 -4.5 13 -6.3 7.2 -3 9 -3.3 17 -3.2 12.5 0.1 31.6 5.7 39 11.2 6.6 5.1 13.1 8.7 17.8 9.9 2 0.6 3.7 0.8 3.7 0.6 0 -0.2 -1 -2.1 -2.3 -4.2 -1.3 -2 -2.9 -5.2 -3.5 -7.1 -1.1 -3.2 -1 -3.6 2.8 -8.1 6.4 -7.6 6.8 -7.8 6.2 -2.5 -1 9.7 5.3 18.2 14.2 19.2 10.5 1.2 19.6 -6 22.1 -17.6 0.9 -4.3 2.5 -2.3 2.5 3.4 0 4.5 -2.3 8.6 -7.2 12.8 l-3.3 2.8 8.5 -0.8 c4.7 -0.4 13.7 -0.8 20 -0.8 11.1 0 11.7 0.1 18.5 3.5 l7 3.4 -4.5 0.3 c-2.5 0.2 -7.4 0.6 -11 0.9 l-6.5 0.7 3.7 1.3 c16.8 5.9 30.8 17.4 37.1 30.4 2 4.1 3.9 9.1 4.2 11 l0.7 3.5 -6.9 -7 c-3.8 -3.8 -9.2 -8.3 -12.1 -9.8 -2.9 -1.6 -5.2 -2.7 -5.2 -2.5 0 0.2 0.9 3.2 2 6.6 2.5 8.1 2.5 17.2 0 25.3 -2.2 7.2 -7.7 16.6 -8.9 15.3 -0.4 -0.5 -1.3 -4.1 -2 -8.1 -1.2 -6.7 -5.1 -16.5 -8.3 -20.7 -1.4 -1.7 -1.5 -1.4 -2.1 3.8 -1 9.7 -5.6 17.8 -15.5 27.6 -8.1 7.8 -19.5 16 -20.8 14.7 -0.3 -0.2 0.2 -3 1.1 -6.1 2.5 -8.5 1.6 -9.6 -2.9 -3.7 -4.4 5.8 -13.5 13 -21.8 17.2 -8.4 4.3 -9.2 4 -6.4 -2.3 1.3 -2.9 2.7 -6.5 3 -8.1 l0.6 -2.7 -4.7 3.4 c-9.3 6.6 -24.3 12.6 -31.5 12.6 l-3.8 0 0 -4.9z"/>
  <path d="M256.3 370 c-1.2 -0.5 -3.3 -2.6 -4.7 -4.7 -2.9 -4.4 -10.9 -27.5 -9.8 -28.4 1.1 -1 14.1 -5.9 15.6 -5.9 0.8 0 1.9 2.8 3.1 8.1 0.9 4.5 3.4 13.2 5.5 19.5 2.1 6.2 3.5 11.6 3.2 11.9 -0.9 0.8 -10.5 0.5 -12.9 -0.5z"/>
  <path d="M251.5 277 c-7 -1 -11.5 -2.5 -11.5 -3.9 0 -2 6.2 -4.2 12.9 -4.8 7.8 -0.6 18.7 1 24.9 3.7 7.7 3.4 5 4.9 -10.3 5.5 -5.5 0.2 -12.7 0 -16 -0.5z"/>
  <path d="M453.7 245.8 c10.5 -10 12.5 -19.2 5.7 -26.8 l-3.6 -4 2.6 0 c1.4 0 2.6 -0.4 2.6 -0.9 0 -1.5 -9.8 -3.4 -14.4 -2.7 -4.9 0.8 -15.2 5.4 -20 9.1 -4.2 3.2 -4.7 3.2 -3.5 -0.4 1.6 -4.6 7.7 -11 13.3 -13.9 4.2 -2.2 6.4 -2.7 12.6 -2.6 6.4 0 8.3 0.4 12.8 2.9 7.5 4.1 10.5 9.4 10.5 18.3 0 7.2 -1.9 12.2 -6.8 18 -2.9 3.4 -11.7 8.2 -15.1 8.2 -1.9 0 -1.4 -0.8 3.3 -5.2z"/>
  <path d="M362.6 241.4 c-0.9 -0.8 -1.6 -2.4 -1.6 -3.4 0 -2.1 2.5 -5 4.3 -5 2.2 0 5.7 3.1 5.7 4.9 0 2.2 -3 5.1 -5.3 5.1 -0.8 0 -2.3 -0.7 -3.1 -1.6z"/>
  <path d="M330.2 235.3 c1.7 -24.1 28.5 -35 49.8 -20.4 4.6 3.1 12.8 12.7 11.7 13.7 -0.1 0.2 -3.9 -0.8 -8.2 -2.3 -6.4 -2 -10 -2.5 -18 -2.6 -13.5 0 -19.8 2.4 -27.7 10.5 -3.2 3.2 -5.8 6.3 -5.8 6.8 0 0.6 -0.5 1 -1.1 1 -0.8 0 -1 -2.1 -0.7 -6.7z"/>
  <path d="M247.2 237.8 c-1.7 -1.7 -1.5 -4.5 0.4 -5.2 2.2 -0.8 2.2 -0.8 3.4 1.5 0.9 1.5 0.8 2.4 -0.1 3.5 -1.4 1.7 -2.1 1.8 -3.7 0.2z"/>
  <path d="M256.6 232.2 c-0.4 -1 -2 -3.2 -3.7 -4.8 -2.7 -2.6 -3.7 -2.9 -9.7 -2.9 -3.7 0 -8 0.4 -9.6 0.9 l-3 0.9 2.6 -4.4 c2.5 -4.4 10.1 -10.4 14.4 -11.5 5.8 -1.5 11.8 2.8 13 9.1 0.7 4 -1.2 14.5 -2.6 14.5 -0.5 0 -1.1 -0.8 -1.4 -1.8z"/>
  <path d="M225.4 214.6 c-1.9 -5 2.8 -13.2 9.7 -16.6 3.7 -1.9 11.9 -2.8 11.9 -1.2 0 0.4 -2.6 2.5 -5.6 4.7 -3.1 2.2 -7.8 6.4 -10.5 9.3 -3.8 4.2 -5 5 -5.5 3.8z"/>
 </g>
</svg>